<svg xmlns="http://www.w3.org/2000/svg" viewBox="0 0 195.82 214.78"><defs><style>.cls-1{fill:#060606;}</style></defs><g id="Layer_2" data-name="Layer 2"><g id="svg2"><path id="path3543" class="cls-1" d="M9.94,0c1.94-.13,3.83,2.94,4.88,8.69,4.68,25.75,11.58,40.51,26,55.63,15.68,16.41,29.09,23.88,72.06,40.12,47.44,17.93,69.19,32,78.44,50.69,2.9,5.87,3.83,9.07,4.28,15,.69,9.18-.43,11.84-4.91,11.84s-9.78-6-15.44-17.31c-13.86-27.74-28.74-38.63-78.37-57.47C64.09,94.7,50.56,87.94,38,77.75S16.5,53,12.32,35.54L9.91,25.44l.44,15c.53,17.77,2.76,28.11,8.56,40,8.48,17.37,16.55,24.38,54,46.75,6.48,3.87,10.65,7,10.87,8.16.33,1.73-.15,1.86-5.21,1.34-6.72-.69-23-7.43-34.54-14.28-8.94-5.31-23.6-18.29-27.15-24-3.77-6.1-3.37-2.83.53,4.28,5.38,9.81,12.57,18.22,24.25,28.41,5.64,4.91,10.25,9.37,10.25,9.9s-1.61,1-3.59,1c-4.5,0-13-4.44-21.22-11.09-3.41-2.76-6.19-4.72-6.19-4.38,0,1.84,7.89,12.08,12.66,16.44,14.16,13,32.62,19.52,74.5,26.5,11.74,2,22.58,4,24.09,4.66,3.12,1.26,3.59,3.31,1,4.37-3.37,1.37-23.84,1.75-34.16.63-5.72-.63-10.56-1-10.78-.75-.9.89,3.83,12.06,6.91,16.31,9.29,12.83,28.35,18,51.53,13.94,11.26-2,12.25-2,12.25-.25s-3.58,3.14-11,4.56c-3,.58-6.4,1.24-7.5,1.5-5,1.15-25.2-.35-31.56-2.34-7.69-2.41-17.24-8.3-21.35-13.16-3.8-4.5-7.58-12.84-8.4-18.56l-.69-4.6-8.5-2.4c-10-2.83-26.37-10.52-35.09-16.44-9.86-6.7-17.35-15-22-24.47-3.61-7.3-4.24-9.56-4.87-17.66-.51-6.57-1.5-11.12-3.38-15.5A54.4,54.4,0,0,1,1.32,65.5,29.63,29.63,0,0,0,1.63,54c-1.89-11.42,1-40.19,5-50.18C7.59,1.33,8.78.08,9.94,0Z"/></g></g></svg>