<svg xmlns="http://www.w3.org/2000/svg" viewBox="0 0 195.82 214.78"><defs><style>.cls-1{fill:#060606;}</style></defs><g id="Layer_2" data-name="Layer 2"><g id="svg2"><path id="path3539" class="cls-1" d="M185.88,0c-1.94-.13-3.83,2.94-4.88,8.69-4.68,25.75-11.58,40.51-26,55.63-15.69,16.41-29.09,23.88-72.06,40.12-47.44,17.93-69.19,32-78.44,50.69C1.57,161,.64,164.2.19,170.1c-.7,9.18.43,11.84,4.91,11.84s9.78-6,15.43-17.31C34.4,136.89,49.28,126,98.91,107.16c32.82-12.46,46.34-19.22,58.94-29.41S179.32,53,183.5,35.54l2.41-10.1-.44,15c-.54,17.77-2.76,28.11-8.56,40-8.48,17.37-16.55,24.38-54,46.75-6.49,3.87-10.66,7-10.88,8.16-.32,1.73.15,1.86,5.22,1.34,6.72-.69,23-7.43,34.53-14.28,8.95-5.31,23.61-18.29,27.16-24,3.77-6.1,3.37-2.83-.53,4.28-5.38,9.81-12.57,18.22-24.25,28.41-5.64,4.91-10.25,9.37-10.25,9.9s1.61,1,3.59,1c4.5,0,13-4.44,21.22-11.09,3.4-2.76,6.19-4.72,6.19-4.38,0,1.84-7.89,12.08-12.66,16.44-14.16,13-32.62,19.52-74.5,26.5-11.74,2-22.58,4-24.09,4.66-3.13,1.26-3.59,3.31-1,4.37,3.36,1.37,23.84,1.75,34.15.63,5.73-.63,10.57-1,10.79-.75.89.89-3.84,12.06-6.91,16.31-9.29,12.83-28.35,18-51.53,13.94-11.26-2-12.25-2-12.25-.25s3.58,3.14,11,4.56c3,.58,6.4,1.24,7.5,1.5,5,1.15,25.2-.35,31.56-2.34,7.68-2.41,17.23-8.3,21.34-13.16a43.61,43.61,0,0,0,8.41-18.56l.69-4.6,8.5-2.4c10-2.83,26.37-10.52,35.09-16.44,9.86-6.7,17.34-15,22-24.47,3.62-7.3,4.25-9.56,4.88-17.66.51-6.57,1.5-11.12,3.37-15.5A54.33,54.33,0,0,0,194.5,65.5a29.63,29.63,0,0,1-.31-11.5c1.88-11.42-1-40.19-5-50.18C188.23,1.33,187,.08,185.88,0Z"/></g></g></svg>